<svg width="75" height="75" viewBox="0 0 75 75" fill="none" xmlns="http://www.w3.org/2000/svg">
<g clip-path="url(#clip0_138_2188)">
<path d="M65.625 15.625C62.1562 14.5313 58.3437 14.0625 54.6875 14.0625C48.5937 14.0625 42.0313 15.3125 37.5 18.75C32.9687 15.3125 26.4063 14.0625 20.3125 14.0625C14.2187 14.0625 7.65625 15.3125 3.125 18.75V64.5312C3.125 65.3125 3.90625 66.0937 4.6875 66.0937C5 66.0937 5.15625 65.9375 5.46875 65.9375C9.6875 63.9063 15.7812 62.5 20.3125 62.5C26.4063 62.5 32.9687 63.75 37.5 67.1875C41.7188 64.5312 49.375 62.5 54.6875 62.5C59.8437 62.5 65.1563 63.4375 69.5312 65.7812C69.8438 65.9375 70 65.9375 70.3125 65.9375C71.0938 65.9375 71.875 65.1563 71.875 64.375V18.75C70 17.3438 67.9688 16.4062 65.625 15.625ZM65.625 57.8125C62.1875 56.7188 58.4375 56.25 54.6875 56.25C49.375 56.25 41.7188 58.2812 37.5 60.9375V25C41.7188 22.3437 49.375 20.3125 54.6875 20.3125C58.4375 20.3125 62.1875 20.7813 65.625 21.875V57.8125Z" fill="white"/>
<path d="M54.6875 32.8125C57.4375 32.8125 60.0938 33.0938 62.5 33.625V28.875C60.0312 28.4062 57.375 28.125 54.6875 28.125C49.375 28.125 44.5625 29.0312 40.625 30.7187V35.9062C44.1562 33.9062 49.0625 32.8125 54.6875 32.8125Z" fill="white"/>
<path d="M40.625 39.0312V44.2187C44.1562 42.2187 49.0625 41.125 54.6875 41.125C57.4375 41.125 60.0938 41.4063 62.5 41.9375V37.1875C60.0312 36.7187 57.375 36.4375 54.6875 36.4375C49.375 36.4375 44.5625 37.375 40.625 39.0312Z" fill="white"/>
<path d="M54.6875 44.7812C49.375 44.7812 44.5625 45.6875 40.625 47.375V52.5625C44.1562 50.5625 49.0625 49.4688 54.6875 49.4688C57.4375 49.4688 60.0938 49.75 62.5 50.2813V45.5312C60.0312 45.0312 57.375 44.7812 54.6875 44.7812Z" fill="white"/>
</g>
<defs>
<clipPath id="clip0_138_2188">
<rect width="75" height="75" fill="white"/>
</clipPath>
</defs>
</svg>
