<svg width="335" height="597" viewBox="0 0 335 597" fill="none" xmlns="http://www.w3.org/2000/svg">
<path d="M118.416 389.804L60.7964 346.669C52.6246 340.552 50.9592 328.968 57.0768 320.796V320.796C63.1943 312.625 74.7781 310.959 82.9499 317.077L140.569 360.211L118.416 389.804Z" fill="#BA9A69"/>
<path d="M181 276.567L293.203 173.528C301.339 166.057 313.99 166.595 321.462 174.731V174.731C328.933 182.866 328.394 195.518 320.259 202.99L208.056 306.029L181 276.567Z" fill="#A07C46"/>
<path d="M175 130.965L241.488 69.9066C246.845 64.9876 255.174 65.3422 260.093 70.6987V70.6987C265.012 76.0551 264.658 84.385 259.301 89.304L192.813 150.362L175 130.965Z" fill="#A07C46"/>
<path d="M80.5928 161.899L61.9703 82.9748C60.7823 77.9395 63.901 72.8945 68.9363 71.7064V71.7064C73.9716 70.5183 79.0166 73.6371 80.2047 78.6724L98.8271 157.597L80.5928 161.899Z" fill="#BA9A69"/>
<path d="M124.721 214.417L14.9238 108.818C6.96256 101.161 6.71579 88.5002 14.3726 80.539V80.539C22.0294 72.5778 34.6903 72.331 42.6515 79.9878L152.449 185.587L124.721 214.417Z" fill="#A07C46"/>
<rect x="119" width="89" height="597" rx="30" fill="#BA9A69"/>
<path d="M163 597H149C132.431 597 119 583.569 119 567L119 30C119 13.4315 132.431 0 149 0H163L163 597Z" fill="#A07C46"/>
</svg>
